<svg id="Layer_1" data-name="Layer 1" xmlns="http://www.w3.org/2000/svg" viewBox="0 0 250 250"><defs><style>.cls-1{fill:#8f60ff;}</style></defs><title>archer_icon</title><path class="cls-1" d="M40,35.76,44,35.09c97.34-16.27,182.64,66.3,169.55,164.11h0a10.48,10.48,0,0,1-8.39,8.9l-11.89,2.31,1.78-21C213.33,97.85,145.72,31.84,54.52,55.23L29.33,58.55,28.2,52.73A14.43,14.43,0,0,1,40,35.76Z"/><path class="cls-1" d="M56.62,198.4l-13,12.44s1.33,13.51,1.77,13.42,14.88-13,14.88-13Z"/><path class="cls-1" d="M23.6,199.7,37.24,188s13.31,2.64,13.19,3.06-14.37,13.55-14.37,13.55Z"/><polygon class="cls-1" points="184.73 44.27 206.72 44.27 206.72 64.28 195.73 54.27 184.73 44.27"/><rect class="cls-1" x="123.3" y="23.9" width="3.4" height="202.19" transform="translate(125 -51.78) rotate(45)"/><rect class="cls-1" x="123.28" y="22.88" width="3.43" height="204.23" transform="translate(301.78 125) rotate(135)"/></svg>