<svg id="Layer_1" data-name="Layer 1" xmlns="http://www.w3.org/2000/svg" viewBox="0 0 1019 1115">
  <title>fight_for_yourself</title>
  <g>
    <g>
      <path d="M600.91,481.35A126.09,126.09,0,1,1,727,355.27,126.22,126.22,0,0,1,600.91,481.35Zm0-206.17A80.09,80.09,0,1,0,681,355.27,80.17,80.17,0,0,0,600.91,275.18Z" transform="translate(-30.5 -58.5)" style="fill: #fbae17"/>
      <path d="M656.82,775.5h-518L401.18,421.76l232,107.41Zm-426.62-46h376L589.87,559.83l-174-80.59Z" transform="translate(-30.5 -58.5)" style="fill: #fbae17"/>
    </g>
    <rect x="731" y="171" width="134" height="545"/>
  </g>
  <path d="M1049.5,1173.5H30.5V58.5h1019Zm-973-46h927V104.5H76.5Z" transform="translate(-30.5 -58.5)" style="fill: none"/>
</svg>
