<svg id="Layer_1" data-name="Layer 1" xmlns="http://www.w3.org/2000/svg" viewBox="0 0 1019 1115">
  <title>fight_for_your_team</title>
  <g>
    <g>
      <path d="M544.5,343a91.12,91.12,0,1,1,91.12-91.12A91.22,91.22,0,0,1,544.5,343Zm0-141.18a50.06,50.06,0,1,0,50,50.06A50.11,50.11,0,0,0,544.5,201.81Z" transform="translate(-30.5 -58.5)" style="fill: #fbae17"/>
      <path d="M598,569.42H228.55l187.65-253,164.86,76.34Zm-287.9-41.07h242.7l-10.4-108.21-113.17-52.4Z" transform="translate(-30.5 -58.5)" style="fill: #fbae17"/>
    </g>
    <rect x="677.05" y="108.08" width="117.2" height="397"/>
  </g>
  <g>
    <g>
      <path d="M409.92,778.22a93.5,93.5,0,1,1,93.51-93.5A93.61,93.61,0,0,1,409.92,778.22Zm0-144.86a51.37,51.37,0,1,0,51.37,51.36A51.42,51.42,0,0,0,409.92,633.36Z" transform="translate(-30.5 -58.5)" style="fill: #fbae17"/>
      <path d="M532.21,891.25H287.63v-98H532.21ZM329.77,849.11H490.08V835.37H329.77Z" transform="translate(-30.5 -58.5)" style="fill: #fbae17"/>
    </g>
    <g>
      <path d="M670.08,778.22a93.5,93.5,0,1,1,93.5-93.5A93.61,93.61,0,0,1,670.08,778.22Zm0-144.86a51.37,51.37,0,1,0,51.36,51.36A51.42,51.42,0,0,0,670.08,633.36Z" transform="translate(-30.5 -58.5)" style="fill: #fbae17"/>
      <path d="M792.37,891.25H547.79v-98H792.37ZM589.92,849.11H750.23V835.37H589.92Z" transform="translate(-30.5 -58.5)" style="fill: #fbae17"/>
    </g>
  </g>
  <path d="M1049.5,1173.5H30.5V58.5h1019Zm-973-46h927V104.5H76.5Z" transform="translate(-30.5 -58.5)" style="fill: none"/>
</svg>
