<svg xmlns="http://www.w3.org/2000/svg" viewBox="0 0 250 250"><defs><style>.cls-1{isolation:isolate;}.cls-2,.cls-4{fill:#8f60ff;}.cls-2{stroke:#8f60ff;stroke-miterlimit:10;}.cls-3{fill:#fffd4f;mix-blend-mode:screen;}</style></defs><title>knight_icon</title><g class="cls-1"><g id="Layer_1" data-name="Layer 1"><rect class="cls-2" x="107.7" y="56.63" width="18.96" height="115.31" transform="matrix(0.73, -0.69, 0.69, 0.73, -46.48, 111.77)"/><polygon class="cls-2" points="87.31 68.9 73.54 81.93 49.35 56.35 37.01 29.52 63.12 43.33 87.31 68.9"/><rect class="cls-2" x="157.37" y="146.55" width="28.81" height="50.91" rx="9.47" transform="translate(-71.22 165.06) rotate(-43.4)"/><rect class="cls-2" x="190.69" y="173.2" width="13.23" height="51.59" rx="4.35" transform="translate(-82.78 189.99) rotate(-43.4)"/><polygon class="cls-3" points="37.01 29.52 153.56 152.03 157.73 149.54 162.12 148.01 63.28 43.5 37.01 29.52"/><path class="cls-4" d="M218.89,107.17l-.28-.3c-6.06,4.85-10.85,10.84-15.17,17.23a46.91,46.91,0,0,1-10.17,5.33c-5.79,2.17-12.06,2.95-17.94,4.89a41.4,41.4,0,0,0-14.13,7.82,30.16,30.16,0,0,0-8.42,11.51c-9.13,3.09-15.89,10.85-19.76,19.53-2.5,5.6-3.64,11.76-5.84,17.49a46.62,46.62,0,0,1-6.71,11.9c-6.62,4-12.92,8.46-18.07,14.2l.2.2a18.37,18.37,0,0,0,1.75,1.86,47.24,47.24,0,0,0,18.05-14.18c6.2-3.7,12.72-7,19-10.48a99.92,99.92,0,0,0,18.38-12.57,52,52,0,0,0,7.32-8c.67-.91,1.33-1.85,1.94-2.84l.52-.28a49.34,49.34,0,0,0,8.78-6.4c11-10,17.74-23.75,25.87-36.13.39-.59.78-1.18,1.18-1.77,1-.7,2-1.42,3-2.19a47.08,47.08,0,0,0,12.22-15A13.71,13.71,0,0,0,218.89,107.17Z"/></g></g></svg>