<svg id="Layer_1" data-name="Layer 1" xmlns="http://www.w3.org/2000/svg" viewBox="0 0 250 250"><defs><style>.cls-1{fill:#8f60ff;}.cls-2{fill:#f2f2f2;}</style></defs><title>mage_icon</title><path class="cls-1" d="M102.22,32.67h14.63a0,0,0,0,1,0,0V246.93a3,3,0,0,1-3,3h-8.7a3,3,0,0,1-3-3V32.67A0,0,0,0,1,102.22,32.67Z" transform="translate(134.35 -35.75) rotate(45.77)"/><path class="cls-1" d="M170.27,92l-5.69-5.85c-3.7-3.8-2.71-10.76,2.21-15.55l20.74-20.19c4.92-4.79,11.91-5.59,15.6-1.8L215.25,61C219,64.82,218,71.79,213,76.58L185.88,90.17C181,95,174,95.77,170.27,92Z"/><path class="cls-1" d="M160.45,81.88l5.69,5.85c3.7,3.8,10.69,3,15.61-1.8l20.74-20.19C207.41,61,208.4,54,204.7,50.19L192.59,37.75c-3.7-3.8-10.69-3-15.61,1.8L162.66,66.33C157.74,71.12,156.75,78.08,160.45,81.88Z"/><rect class="cls-2" x="186.87" y="47.49" width="6.41" height="31.19" rx="2.92" transform="translate(102.68 -117.11) rotate(45.77)"/><path class="cls-2" d="M183.67,78.53h0a2.67,2.67,0,0,1,1.48-3.76l25-8a3.42,3.42,0,0,1,4,2h0a2.67,2.67,0,0,1-1.48,3.75l-25,8A3.4,3.4,0,0,1,183.67,78.53Z"/><path class="cls-2" d="M174.47,69.08h0a2.67,2.67,0,0,0,3.79-1.38l8.61-24.79a3.39,3.39,0,0,0-1.91-4h0a2.66,2.66,0,0,0-3.79,1.38L172.56,65A3.41,3.41,0,0,0,174.47,69.08Z"/><rect class="cls-1" x="38.09" y="176.13" width="27.51" height="42.62" rx="11.32" transform="translate(157.15 22.56) rotate(45.77)"/><rect class="cls-1" x="198.34" y="29.77" width="25.38" height="25.38" rx="11.79"/></svg>